<svg width="25" height="24" viewBox="0 0 25 24" fill="none" xmlns="http://www.w3.org/2000/svg">
<g id="Icon / apple">
<path id="Vector" d="M16.1249 8.26719C16.9578 8.33398 17.6073 8.56563 18.1108 8.94285C15.6597 11.2366 16.3143 14.9917 18.8149 16.6579C18.3236 17.7835 17.7225 18.7852 16.8734 19.5446L17.235 19.9489L16.8539 19.562C16.5307 19.8753 16.2457 19.9684 15.9806 19.9812C15.6806 19.9956 15.3192 19.9097 14.8703 19.7136L14.8704 19.7136L14.8588 19.7087C13.5251 19.1459 12.2462 19.1222 10.8448 19.7072L10.8448 19.7071L10.8345 19.7115C10.1903 19.9889 9.83803 20.0235 9.61991 19.9932C9.42609 19.9663 9.20704 19.8706 8.86706 19.5623C6.62478 17.2393 5.71863 14.3618 5.94734 12.115C6.06151 10.9935 6.45177 10.0703 7.04636 9.42493C7.61965 8.80269 8.43547 8.37942 9.54839 8.31163C10.0496 8.34493 10.4942 8.48386 10.9566 8.65293C11.0148 8.67424 11.0774 8.69784 11.1434 8.72278C11.5397 8.87235 12.0628 9.0698 12.5542 9.10713L12.693 9.11766L12.8293 9.08994C13.3273 8.98865 13.8472 8.80833 14.2862 8.6561C14.4326 8.60533 14.57 8.55768 14.6945 8.51714C15.2491 8.33662 15.6948 8.23723 16.1249 8.26719ZM14.338 5.46796C14.1424 5.65742 13.934 5.81622 13.7282 5.94146C13.9886 5.29608 14.476 4.75062 15.0826 4.40099C14.9147 4.79893 14.6552 5.16075 14.338 5.46796Z" fill="#E5E5E5" stroke="#E5E5E5" stroke-width="2"/>
</g>
</svg>
