<svg width="25" height="24" viewBox="0 0 25 24" fill="none" xmlns="http://www.w3.org/2000/svg">
<g id="Icon / google">
<path id="Vector" d="M13.5 13.05H17.882H19.0805L18.8658 14.2291C18.7302 14.974 18.4449 15.6836 18.0273 16.3151C17.6104 16.9455 17.0701 17.485 16.4392 17.9011C15.3637 18.6203 14.0222 19.023 12.5 19.023C9.43009 19.023 6.86722 16.9549 5.95632 14.2162L13.5 13.05ZM13.5 13.05V11.182H21.0486C21.0823 11.5225 21.1 11.8708 21.1 12.227C21.1 15.029 20.1023 17.3132 18.4411 18.8409L18.4394 18.8425C16.9861 20.1851 14.971 21 12.5 21H12.4996C11.3176 21.0005 10.1471 20.768 9.05504 20.3159C7.96295 19.8638 6.97065 19.2009 6.13487 18.3651C5.29908 17.5294 4.6362 16.5371 4.18409 15.445C3.73199 14.3529 3.49953 13.1824 3.5 12.0004V12C3.5 10.5471 3.84718 9.17437 4.45753 7.959L13.5 13.05ZM12.5 3H12.4999C10.8315 2.99989 9.19583 3.46357 7.77565 4.33926C6.35554 5.21491 5.20677 6.46807 4.45763 7.9588L12.5 3ZM12.5 3C14.5346 3 16.2826 3.62161 17.7087 4.67233M12.5 3L17.7087 4.67233M17.7087 4.67233L16.2548 6.12678C15.1623 5.36195 13.8768 4.977 12.5 4.977C9.43026 4.977 6.86628 7.04593 5.95632 9.78377C5.72497 10.4778 5.591 11.2245 5.591 12C5.591 12.7754 5.72492 13.5219 5.9562 14.2159L17.7087 4.67233Z" fill="black" stroke="#84858E" stroke-width="2"/>
</g>
</svg>
