<svg width="24" height="24" viewBox="0 0 24 24" fill="none" xmlns="http://www.w3.org/2000/svg">
<g id="Icon / home">
<path id="Vector" d="M19.632 7.10596L13.166 3.08796C12.8121 2.8674 12.4035 2.75049 11.9865 2.75049C11.5695 2.75049 11.1609 2.8674 10.807 3.08796L4.341 7.10596C3.97437 7.33809 3.68343 7.67216 3.50386 8.06719C3.32428 8.46223 3.26386 8.90109 3.33 9.32996L4.999 19.346C5.08668 19.8706 5.35943 20.3465 5.76779 20.6873C6.17616 21.0282 6.69313 21.2115 7.225 21.204H9.76V17.554C9.76053 17.1409 9.92484 16.7449 10.2169 16.4529C10.509 16.1608 10.905 15.9965 11.318 15.996H12.653C13.066 15.9965 13.462 16.1608 13.7541 16.4529C14.0462 16.7449 14.2105 17.1409 14.211 17.554V21.249H16.771C17.303 21.2562 17.8199 21.0727 18.2283 20.7317C18.6366 20.3907 18.9093 19.9147 18.997 19.39L20.666 9.37496C20.7394 8.93652 20.6801 8.48615 20.4956 8.08168C20.3112 7.6772 20.0101 7.33707 19.631 7.10496M7.535 10.878H16.438" stroke="white" stroke-width="1.5" stroke-linecap="round" stroke-linejoin="round"/>
</g>
</svg>
