<svg width="25" height="24" viewBox="0 0 25 24" fill="none" xmlns="http://www.w3.org/2000/svg">
<g id="Icon / mail">
<path id="Vector" d="M5.49136 9.2308L6.4835 9.10564L5.49136 9.2308C5.52489 9.49659 5.61148 9.75294 5.74599 9.98463C5.87749 10.2111 6.05218 10.4096 6.26009 10.5687L10 13.5616C10.0001 13.5617 10.0001 13.5617 10.0002 13.5618C10.7096 14.1297 11.5913 14.4391 12.5 14.4391C13.4087 14.4391 14.2903 14.1297 14.9997 13.5619C14.9998 13.5618 14.9999 13.5617 15 13.5616L18.7497 10.5619L18.7498 10.5618C18.9549 10.3976 19.1257 10.1947 19.2523 9.9646C19.379 9.73448 19.4591 9.48166 19.4881 9.22059C19.5171 8.95951 19.4943 8.69528 19.4212 8.44299C19.348 8.19069 19.2259 7.95527 19.0618 7.75018C18.8976 7.54509 18.6947 7.37433 18.4646 7.24766C18.2345 7.12098 17.9817 7.04087 17.7206 7.01191C17.4595 6.98294 17.1953 7.00568 16.943 7.07883C16.6907 7.15196 16.4554 7.27405 16.2503 7.43813C16.2503 7.43816 16.2502 7.4382 16.2502 7.43823L12.5003 10.4381L12.5 10.4384L12.4996 10.438L8.75998 7.44736C8.55953 7.27943 8.32804 7.1524 8.07859 7.07353C7.82316 6.99276 7.5541 6.96414 7.28739 6.98935C7.02068 7.01457 6.76175 7.09311 6.52598 7.22032C6.29021 7.34752 6.08239 7.5208 5.91487 7.72987C5.74735 7.93893 5.62354 8.17952 5.55079 8.43735C5.47804 8.69518 5.45783 8.965 5.49136 9.2308ZM5.5 19C4.96957 19 4.46086 18.7893 4.08579 18.4142C3.71071 18.0391 3.5 17.5304 3.5 17V7C3.5 6.46957 3.71071 5.96086 4.08579 5.58579C4.46086 5.21071 4.96957 5 5.5 5H19.5C20.0304 5 20.5391 5.21071 20.9142 5.58579C21.2893 5.96086 21.5 6.46957 21.5 7V17C21.5 17.5304 21.2893 18.0391 20.9142 18.4142C20.5391 18.7893 20.0304 19 19.5 19H5.5Z" fill="#84858E" stroke="#84858E" stroke-width="2"/>
</g>
</svg>
